<?xml version="1.0" standalone="no"?>
<!DOCTYPE svg PUBLIC "-//W3C//DTD SVG 20010904//EN"
 "http://www.w3.org/TR/2001/REC-SVG-20010904/DTD/svg10.dtd">
<svg version="1.0" xmlns="http://www.w3.org/2000/svg"
 width="460.000000pt" height="460.000000pt" viewBox="0 0 460.000000 460.000000"
 preserveAspectRatio="xMidYMid meet">
<metadata>
Created by potrace 1.11, written by Peter Selinger 2001-2013
</metadata>
<g transform="translate(0.000000,460.000000) scale(0.100000,-0.100000)"
fill="#000000" stroke="none">
<path d="M0 3831 l0 -769 73 14 c39 8 120 24 180 36 l107 22 10 36 c8 32 85
367 115 505 8 33 30 132 50 220 20 88 54 239 76 335 22 96 48 212 59 257 11
45 20 89 20 97 0 14 -38 16 -345 16 l-345 0 0 -769z"/>
<path d="M2244 4568 c3 -18 8 -58 11 -88 3 -30 10 -82 16 -115 5 -33 15 -109
23 -170 8 -60 31 -235 53 -388 l38 -278 50 6 c28 4 124 22 215 40 91 19 307
61 480 95 173 33 381 74 462 90 81 17 158 30 172 30 17 0 97 -61 263 -198 131
-110 245 -208 254 -218 10 -10 85 -145 168 -299 l151 -280 0 903 0 902 -1181
0 -1181 0 6 -32z"/>
<path d="M1456 3883 c-3 -137 -9 -312 -13 -390 l-6 -143 27 0 c25 0 372 65
404 76 17 5 11 14 -182 324 -77 124 -157 258 -177 299 -21 40 -40 75 -42 77
-2 2 -7 -107 -11 -243z"/>
<path d="M847 2423 c-10 -10 -8 -23 4 -23 5 0 8 4 5 9 -4 5 0 12 6 14 7 3 8 6
2 6 -6 1 -14 -2 -17 -6z"/>
<path d="M841 2364 c0 -11 3 -14 6 -6 3 7 2 16 -1 19 -3 4 -6 -2 -5 -13z"/>
<path d="M799 2348 c-1 -7 -1 -19 0 -26 1 -7 -4 -11 -10 -10 -7 2 -15 -5 -17
-14 -2 -10 1 -18 7 -18 6 0 11 5 11 11 0 8 4 9 13 0 14 -11 27 -5 27 11 0 5
-4 6 -10 3 -5 -3 -10 3 -10 15 0 13 4 19 11 14 7 -4 10 -1 7 6 -6 19 -28 25
-29 8z"/>
<path d="M777 2263 c-4 -6 0 -13 8 -17 8 -3 17 0 21 6 4 6 3 8 -4 4 -5 -3 -12
-1 -14 6 -3 8 -6 9 -11 1z"/>
<path d="M745 2250 c3 -5 8 -10 11 -10 2 0 4 5 4 10 0 6 -5 10 -11 10 -5 0 -7
-4 -4 -10z"/>
<path d="M720 2220 c0 -5 6 -7 14 -4 8 3 17 1 20 -5 8 -12 -29 -25 -45 -16 -6
4 -13 -2 -16 -14 -3 -12 -9 -21 -14 -21 -5 0 -9 -4 -9 -9 0 -5 20 -9 44 -9 43
-1 44 0 48 32 2 19 2 39 0 45 -5 14 -42 15 -42 1z m10 -50 c0 -5 -7 -10 -16
-10 -8 0 -12 5 -9 10 3 6 10 10 16 10 5 0 9 -4 9 -10z"/>
<path d="M775 2220 c4 -6 11 -8 16 -5 14 9 11 15 -7 15 -8 0 -12 -5 -9 -10z"/>
<path d="M775 2190 c-3 -5 -1 -10 4 -10 6 0 11 5 11 10 0 6 -2 10 -4 10 -3 0
-8 -4 -11 -10z"/>
<path d="M655 2121 c-6 -10 100 -9 110 0 3 4 -19 7 -49 8 -30 0 -58 -4 -61 -8z"/>
<path d="M660 2090 c0 -5 5 -10 11 -10 5 0 7 5 4 10 -3 6 -8 10 -11 10 -2 0
-4 -4 -4 -10z"/>
<path d="M690 2084 c0 -8 5 -12 10 -9 6 4 8 11 5 16 -9 14 -15 11 -15 -7z"/>
<path d="M619 2044 c-12 -14 -11 -16 5 -13 11 2 21 10 24 17 5 17 -13 15 -29
-4z"/>
<path d="M663 2046 c0 -8 11 -13 28 -12 30 1 27 10 -7 20 -14 4 -21 2 -21 -8z"/>
<path d="M590 2008 c0 -15 52 -16 57 -2 2 7 -8 11 -27 10 -16 0 -30 -4 -30 -8z"/>
<path d="M660 2000 c0 -11 -7 -20 -15 -20 -8 0 -15 -4 -15 -10 0 -5 -8 -10
-17 -10 -15 0 -16 2 -3 10 13 8 12 10 -2 10 -13 0 -18 -8 -18 -25 0 -14 3 -25
8 -26 31 -5 99 -3 96 3 -2 3 2 8 8 11 8 2 9 8 4 13 -5 5 -11 4 -13 -3 -6 -18
-23 -16 -23 2 0 10 10 15 28 15 20 0 23 3 13 9 -8 5 -20 7 -28 4 -7 -3 -13 2
-13 11 0 19 5 20 31 6 15 -8 19 -7 19 5 0 10 -10 15 -30 15 -23 0 -30 -4 -30
-20z m0 -44 c0 -15 -24 -28 -34 -19 -7 7 13 33 25 33 5 0 9 -6 9 -14z"/>
<path d="M524 1912 c3 -5 0 -13 -6 -15 -8 -3 -6 -6 5 -6 19 -1 23 14 5 25 -6
4 -8 3 -4 -4z"/>
<path d="M560 1898 c0 -4 28 -8 62 -8 34 0 58 3 54 7 -9 10 -116 10 -116 1z"/>
<path d="M495 1869 c-4 -5 11 -9 31 -9 42 0 42 6 1 14 -14 2 -29 0 -32 -5z"/>
<path d="M570 1870 c0 -11 98 -11 105 0 2 4 -20 8 -50 9 -33 1 -55 -3 -55 -9z"/>
<path d="M591 1841 c-1 -8 -8 -11 -21 -8 -11 3 -20 2 -20 -2 0 -3 -18 -5 -40
-3 -34 4 -39 2 -34 -13 5 -13 9 -14 15 -4 6 10 12 9 28 -5 12 -11 21 -24 21
-29 0 -6 -9 -2 -20 8 -21 19 -29 8 -9 -12 9 -9 7 -10 -9 -6 -12 3 -19 9 -16
14 3 5 0 8 -8 7 -7 -2 -12 4 -10 12 3 13 1 13 -10 1 -10 -11 -10 -14 0 -18 6
-3 9 -10 6 -15 -4 -6 -2 -8 3 -5 6 4 21 -2 33 -13 l23 -20 -34 1 c-26 0 -30 2
-15 8 14 5 16 10 8 15 -7 4 -12 4 -12 0 0 -3 -7 -1 -16 7 -13 10 -17 10 -24
-2 -7 -10 -4 -16 8 -21 14 -5 13 -7 -5 -7 -16 -1 -23 -7 -23 -21 0 -11 -6 -20
-14 -20 -8 0 -17 -4 -20 -9 -4 -5 3 -7 14 -4 13 3 20 0 20 -8 0 -12 2 -12 9 0
10 16 31 6 31 -15 0 -8 9 -14 21 -14 11 0 17 5 14 10 -4 6 -10 8 -15 5 -4 -3
-10 1 -13 8 -6 16 55 21 65 4 5 -8 8 -8 8 -1 0 7 18 12 41 12 23 1 44 3 47 6
3 3 -34 6 -82 6 -66 0 -87 3 -84 13 3 7 26 13 57 14 36 1 50 -1 45 -9 -4 -7
-3 -8 4 -4 19 11 14 26 -8 26 -21 0 -27 15 -10 25 11 7 47 -15 49 -30 1 -11
20 -14 35 -6 5 2 1 8 -10 12 -18 7 -18 8 2 8 29 1 39 47 12 54 -16 5 -17 3 -7
-9 9 -11 7 -14 -10 -14 -12 0 -20 4 -17 8 3 5 -1 9 -9 9 -8 0 -12 -4 -9 -8 2
-4 0 -10 -4 -13 -5 -3 -18 7 -30 23 l-20 28 29 -1 c16 -1 29 -4 29 -8 0 -5 7
-8 16 -8 9 0 12 5 8 12 -5 7 -3 8 7 2 20 -12 40 -14 33 -3 -3 5 2 9 10 9 9 0
16 4 16 9 0 10 -19 9 -37 -2 -8 -5 -13 -3 -13 3 0 6 -4 9 -9 6 -5 -4 -12 0
-14 6 -4 10 -6 10 -6 -1z m-1 -81 c0 -5 -5 -10 -11 -10 -5 0 -7 5 -4 10 3 6 8
10 11 10 2 0 4 -4 4 -10z m-150 -60 c0 -5 -4 -10 -10 -10 -5 0 -10 5 -10 10 0
6 5 10 10 10 6 0 10 -4 10 -10z"/>
<path d="M590 1661 c0 -5 -10 -12 -22 -14 -20 -4 -19 -4 5 -6 18 -1 27 4 27
14 0 8 -2 15 -5 15 -3 0 -5 -4 -5 -9z"/>
<path d="M360 1652 c0 -5 7 -9 15 -9 8 0 12 4 9 9 -3 4 -9 8 -15 8 -5 0 -9 -4
-9 -8z"/>
<path d="M418 1643 c7 -3 16 -2 19 1 4 3 -2 6 -13 5 -11 0 -14 -3 -6 -6z"/>
<path d="M508 1643 c6 -2 18 -2 25 0 6 3 1 5 -13 5 -14 0 -19 -2 -12 -5z"/>
<path d="M340 1616 c0 -6 15 -11 38 -10 55 1 62 3 62 14 0 7 -6 8 -16 2 -9 -5
-32 -6 -50 -2 -23 5 -34 4 -34 -4z"/>
<path d="M447 1611 c-3 -14 -1 -18 9 -14 8 3 14 11 14 19 0 21 -17 17 -23 -5z"/>
<path d="M487 1613 c3 -7 15 -12 28 -11 30 3 22 24 -9 24 -15 0 -22 -5 -19
-13z"/>
<path d="M550 1620 c0 -17 22 -22 36 -8 12 12 10 14 -11 16 -14 1 -25 -2 -25
-8z"/>
<path d="M335 1580 c-26 -6 -27 -8 -7 -10 24 -2 58 -3 70 -1 4 1 0 6 -8 11 -8
5 -17 9 -20 9 -3 -1 -18 -5 -35 -9z"/>
<path d="M410 1576 c0 -10 10 -13 38 -9 20 3 39 7 42 10 3 3 -10 4 -27 1 -18
-2 -33 -1 -33 4 0 4 -4 8 -10 8 -5 0 -10 -6 -10 -14z"/>
<path d="M509 1579 c-6 -3 6 -6 25 -7 19 -1 38 2 40 7 6 9 -50 9 -65 0z"/>
<path d="M293 1548 c-5 -10 -20 -9 135 -10 73 0 136 2 139 6 4 3 -18 6 -48 6
-30 1 -92 2 -137 3 -46 1 -86 -1 -89 -5z"/>
<path d="M287 1503 c6 -15 29 -17 38 -4 3 6 14 8 25 6 11 -2 22 0 25 6 4 5 -8
9 -24 9 -17 0 -31 -4 -31 -10 0 -5 -5 -10 -11 -10 -5 0 -8 4 -5 8 3 5 -1 9 -8
9 -8 0 -12 -6 -9 -14z"/>
<path d="M412 1489 c0 -16 4 -29 10 -29 6 0 6 -6 -2 -15 -10 -13 -9 -15 9 -15
13 0 19 -4 16 -10 -4 -6 -11 -8 -16 -5 -5 4 -9 2 -9 -3 0 -6 8 -13 17 -16 10
-4 14 -4 10 0 -11 12 14 34 37 33 20 0 21 -1 1 -9 -17 -8 -17 -9 7 -7 15 1 25
4 22 8 -2 4 2 10 8 12 12 5 -51 11 -78 8 -6 -1 -11 6 -11 14 0 10 7 13 21 10
61 -13 85 -13 90 2 4 10 2 13 -8 10 -8 -3 -17 1 -20 9 -4 9 2 14 17 14 18 0
19 2 7 10 -23 15 -41 12 -39 -7 3 -30 0 -33 -24 -24 -14 5 -30 5 -40 0 -24
-14 -21 -1 3 19 21 17 21 17 -3 18 -20 1 -24 -3 -25 -27z"/>
<path d="M466 1504 c-5 -14 -4 -15 9 -4 17 14 19 20 6 20 -5 0 -12 -7 -15 -16z"/>
<path d="M243 1468 c-5 -9 -6 -9 35 -11 17 -1 32 3 32 8 0 12 -59 14 -67 3z"/>
<path d="M331 1470 c-7 -3 6 -6 28 -6 22 0 38 3 35 7 -5 9 -49 8 -63 -1z"/>
<path d="M293 1442 c-35 -2 -63 -6 -63 -10 0 -14 15 -27 30 -27 9 0 15 -9 15
-22 0 -12 5 -26 9 -30 5 -4 6 -2 2 5 -4 6 -3 12 3 12 5 0 12 -8 14 -17 3 -10
5 -3 6 15 1 19 -4 32 -11 32 -9 0 -8 4 2 11 12 8 10 9 -7 4 -12 -3 -24 -1 -28
5 -4 6 7 10 28 10 31 0 35 -3 31 -22 l-5 -23 12 23 c7 12 19 22 27 22 11 0 12
-3 3 -13 -8 -10 -7 -19 4 -33 15 -19 15 -19 13 1 -2 11 2 19 7 18 6 -1 11 7
11 17 0 22 -19 26 -103 22z"/>
<path d="M236 1387 c-17 -12 -17 -14 -1 -27 14 -12 18 -12 26 1 18 29 2 46
-25 26z"/>
<path d="M460 1389 c0 -3 -9 -9 -20 -12 -11 -3 -18 -1 -14 4 3 5 0 9 -5 9 -21
0 -11 -28 12 -34 35 -9 49 -7 41 7 -6 9 -5 9 8 0 8 -7 18 -10 21 -6 12 11 7
23 -9 23 -8 0 -13 4 -10 8 3 5 -1 9 -9 9 -8 0 -15 -4 -15 -8z"/>
<path d="M182 1370 c-11 -18 -10 -20 12 -18 17 2 24 8 23 20 -2 24 -19 23 -35
-2z"/>
<path d="M332 1381 c-11 -6 -10 -10 4 -15 20 -8 32 0 18 14 -5 5 -15 5 -22 1z"/>
<path d="M382 1365 c-11 -12 -10 -15 3 -15 8 0 15 7 15 15 0 18 -2 18 -18 0z"/>
<path d="M241 1323 c12 -14 12 -16 0 -8 -11 6 -13 4 -8 -8 3 -9 1 -18 -6 -21
-7 -2 -2 -5 11 -5 12 -1 21 2 21 7 -5 27 2 35 15 16 14 -19 14 -19 13 1 -2 20
-19 33 -46 34 -11 1 -11 -2 0 -16z"/>
<path d="M340 1325 c0 -6 29 -9 71 -9 l71 2 -28 -19 c-19 -12 -23 -19 -13 -19
21 0 50 33 41 45 -9 13 -142 13 -142 0z"/>
<path d="M152 1318 c-18 -18 -15 -38 6 -38 13 0 14 2 3 9 -19 12 -5 31 22 30
18 0 19 -2 6 -7 -14 -6 -14 -9 -4 -19 10 -9 15 -6 24 13 10 22 9 24 -17 24
-15 0 -33 -5 -40 -12z"/>
<path d="M308 1323 c7 -3 16 -2 19 1 4 3 -2 6 -13 5 -11 0 -14 -3 -6 -6z"/>
<path d="M340 1290 c0 -5 5 -10 11 -10 5 0 7 5 4 10 -3 6 -8 10 -11 10 -2 0
-4 -4 -4 -10z"/>
<path d="M407 1277 c-3 -8 -1 -20 4 -28 6 -10 9 -7 9 14 0 29 -5 35 -13 14z"/>
<path d="M102 1242 c-17 -36 -15 -41 8 -35 15 4 18 9 10 17 -6 8 -6 16 1 23 6
6 7 13 2 16 -4 3 -14 -6 -21 -21z"/>
<path d="M140 1258 c0 -4 9 -8 20 -8 11 0 20 4 20 8 0 4 -9 8 -20 8 -11 0 -20
-4 -20 -8z"/>
<path d="M235 1260 c4 -6 14 -9 22 -6 8 3 23 1 34 -4 14 -8 19 -7 19 3 0 8
-15 14 -41 16 -28 1 -39 -2 -34 -9z"/>
<path d="M320 1260 c0 -4 16 -7 35 -8 19 -1 35 2 35 7 0 4 -16 8 -35 8 -19 0
-35 -3 -35 -7z"/>
<path d="M436 1255 c3 -6 11 -12 19 -12 8 0 16 6 19 12 3 8 -5 13 -19 13 -14
0 -22 -5 -19 -13z"/>
<path d="M142 1204 c1 -13 6 -24 11 -24 5 0 7 6 4 14 -4 9 1 16 11 18 13 3 12
5 -5 10 -19 5 -22 2 -21 -18z"/>
<path d="M240 1219 c-10 -6 -11 -9 -2 -9 18 0 15 -18 -5 -23 -17 -4 -17 -5 0
-6 9 0 17 -9 17 -18 0 -15 -2 -16 -10 -3 -8 13 -10 12 -10 -2 0 -19 -20 -20
-32 -3 -5 6 -8 5 -8 -2 0 -9 -7 -10 -23 -4 -13 5 -30 6 -37 1 -20 -12 -39 -1
-35 20 2 10 -3 21 -11 24 -17 7 -18 -6 -2 -22 9 -9 7 -13 -5 -18 -9 -3 -17
-11 -17 -16 0 -6 6 -5 15 2 8 7 15 9 15 4 0 -5 39 -9 87 -8 77 0 88 2 85 17
-2 10 9 28 23 41 29 27 31 33 10 33 -8 0 -15 -9 -15 -19 0 -10 -4 -18 -10 -18
-5 0 -7 6 -4 14 7 18 -8 27 -26 15z"/>
<path d="M332 1221 c-9 -5 -3 -8 18 -9 17 0 28 4 25 9 -8 11 -26 11 -43 0z"/>
<path d="M403 1215 c0 -5 13 -10 29 -10 15 0 28 5 28 11 0 6 -13 11 -28 10
-16 -1 -29 -5 -29 -11z"/>
<path d="M170 1186 c0 -2 7 -6 15 -10 8 -3 15 -1 15 4 0 6 -7 10 -15 10 -8 0
-15 -2 -15 -4z"/>
<path d="M320 1181 c0 -4 9 -8 20 -7 21 1 23 -17 2 -21 -23 -3 -27 -13 -6 -14
10 0 36 -2 56 -5 22 -3 39 0 44 7 4 8 3 9 -4 5 -7 -4 -12 -3 -12 2 0 5 -12 8
-27 6 -16 -2 -22 -1 -16 2 10 4 10 9 -1 20 -16 15 -56 19 -56 5z"/>
<path d="M390 1186 c0 -9 30 -14 35 -6 4 6 -3 10 -14 10 -12 0 -21 -2 -21 -4z"/>
<path d="M300 1151 c0 -7 -5 -9 -12 -5 -7 5 -8 3 -3 -5 5 -9 10 -10 18 -2 6 6
8 14 4 18 -4 3 -7 1 -7 -6z"/>
<path d="M160 1124 c0 -7 -25 -11 -66 -12 -36 0 -68 -3 -71 -6 -3 -3 15 -5 40
-4 25 0 49 -2 55 -6 6 -3 13 0 15 6 3 8 6 6 6 -4 1 -16 -9 -18 -71 -18 -39 0
-68 -3 -65 -7 8 -8 257 -7 265 2 3 3 -22 5 -56 5 -34 0 -62 4 -62 10 0 6 36 9
85 9 63 0 85 -4 85 -14 0 -18 21 -24 45 -14 18 8 18 8 -4 6 -13 -1 -26 3 -28
10 -3 7 7 11 27 11 16 -1 33 2 37 5 7 8 -6 9 -132 8 -60 0 -92 3 -97 12 -5 7
-8 8 -8 1z"/>
<path d="M90 1054 c0 -6 -12 -11 -27 -12 -54 0 -60 -2 -60 -19 0 -25 11 -30
74 -32 41 -1 54 2 51 11 -3 8 -21 13 -46 12 -23 0 -42 3 -42 8 0 5 16 8 35 6
19 -1 41 4 47 11 11 11 10 12 -1 6 -8 -4 -17 -2 -22 6 -5 8 -9 9 -9 3z m-60
-34 c0 -5 -5 -10 -11 -10 -5 0 -7 5 -4 10 3 6 8 10 11 10 2 0 4 -4 4 -10z"/>
<path d="M250 1052 c0 -6 -18 -9 -44 -7 -24 1 -50 -1 -57 -6 -11 -7 -10 -9 4
-9 10 0 15 -5 12 -10 -4 -6 -11 -8 -16 -5 -5 4 -9 -1 -9 -9 0 -12 20 -14 125
-13 122 1 149 7 103 22 -22 7 -22 8 7 15 36 9 14 14 -54 11 -24 0 -50 4 -57
10 -9 8 -14 8 -14 1z m-23 -39 c-3 -2 -16 -1 -29 3 l-23 8 25 6 c23 6 39 -4
27 -17z m113 6 c0 -5 -4 -8 -9 -4 -5 3 -12 1 -15 -3 -7 -11 -54 -3 -62 9 -3 5
15 9 40 9 26 0 46 -5 46 -11z"/>
<path d="M0 968 c0 -4 13 -8 30 -8 17 0 30 4 30 8 0 5 -13 8 -30 8 -17 0 -30
-3 -30 -8z"/>
<path d="M70 971 c0 -5 11 -8 25 -8 14 0 28 3 31 8 3 5 -9 9 -25 9 -17 0 -31
-4 -31 -9z"/>
<path d="M140 970 c0 -5 9 -10 20 -10 11 0 20 5 20 10 0 6 -9 10 -20 10 -11 0
-20 -4 -20 -10z"/>
<path d="M210 970 c0 -5 3 -10 8 -11 4 0 15 -2 25 -4 9 -2 17 0 17 5 0 4 11 6
25 5 14 -2 25 1 25 6 0 5 -22 9 -50 9 -27 0 -50 -4 -50 -10z"/>
<path d="M320 970 c0 -5 14 -10 30 -10 17 0 30 5 30 10 0 6 -13 10 -30 10 -16
0 -30 -4 -30 -10z"/>
<path d="M134 939 c-3 -5 -10 -6 -16 -3 -7 4 -8 2 -4 -5 4 -6 12 -9 17 -6 5 4
9 -4 9 -17 0 -17 6 -24 21 -25 12 -1 18 3 16 10 -3 7 -10 11 -16 10 -6 -2 -11
4 -11 13 0 8 4 13 9 9 5 -3 12 -1 15 4 3 5 -3 11 -14 14 -11 3 -23 1 -26 -4z"/>
<path d="M18 933 c7 -3 16 -2 19 1 4 3 -2 6 -13 5 -11 0 -14 -3 -6 -6z"/>
<path d="M56 932 c-3 -5 1 -9 9 -9 8 0 15 4 15 9 0 4 -4 8 -9 8 -6 0 -12 -4
-15 -8z"/>
<path d="M226 931 c9 -10 44 -11 44 -1 0 5 -11 9 -25 8 -13 -1 -22 -4 -19 -7z"/>
<path d="M300 927 c0 -17 -10 -21 -44 -17 -11 1 -15 -3 -12 -9 4 -7 1 -8 -8
-5 -9 3 -16 1 -16 -5 0 -7 17 -10 48 -7 43 3 47 5 44 27 -5 29 -12 39 -12 16z"/>
<path d="M325 930 c-3 -6 1 -7 9 -4 18 7 21 14 7 14 -6 0 -13 -4 -16 -10z"/>
<path d="M30 899 c0 -5 -6 -6 -12 -4 -8 3 -13 -4 -13 -20 0 -23 3 -26 32 -22
18 3 34 0 37 -7 3 -8 5 -8 5 0 1 7 12 9 27 6 19 -3 25 -1 20 7 -4 6 -27 11
-52 11 -28 0 -43 4 -39 10 4 6 11 8 16 5 5 -4 9 0 9 8 0 7 -7 14 -15 14 -8 0
-15 -4 -15 -8z"/>
<path d="M110 901 c0 -5 -9 -7 -20 -4 -11 3 -20 1 -20 -4 0 -5 13 -10 28 -11
20 -1 29 3 29 13 0 8 -4 15 -9 15 -4 0 -8 -4 -8 -9z"/>
<path d="M190 896 c0 -9 5 -16 10 -16 6 0 10 4 10 9 0 6 -4 13 -10 16 -5 3
-10 -1 -10 -9z"/>
<path d="M326 895 c4 -8 10 -15 15 -15 5 0 9 7 9 15 0 8 -7 15 -15 15 -9 0
-12 -6 -9 -15z"/>
<path d="M140 861 c0 -12 28 -22 35 -12 3 5 14 7 25 4 11 -3 20 -1 20 4 0 5
-18 10 -40 11 -22 2 -40 -1 -40 -7z"/>
<path d="M230 860 c0 -5 14 -10 30 -10 17 0 30 5 30 10 0 6 -13 10 -30 10 -16
0 -30 -4 -30 -10z"/>
<path d="M25 830 c-4 -6 -12 -7 -18 -4 -9 5 -9 4 0 -6 6 -7 9 -18 7 -25 -3 -6
3 -18 12 -26 12 -9 15 -10 10 -1 -5 8 0 12 17 12 20 0 24 -4 20 -20 -4 -15 0
-20 13 -20 16 0 17 2 4 10 -13 9 -13 11 0 19 8 5 17 8 21 5 4 -2 9 9 11 25 4
26 2 28 -35 29 -21 1 -43 4 -47 7 -5 3 -11 1 -15 -5z m45 -23 c0 -7 -11 -14
-23 -15 -15 -1 -24 4 -24 13 0 9 10 15 24 15 12 0 23 -6 23 -13z m38 -5 c2 -7
-3 -12 -12 -12 -9 0 -16 7 -16 16 0 17 22 14 28 -4z"/>
<path d="M245 832 c-5 -4 -11 -13 -13 -20 -2 -10 2 -10 18 -2 11 6 18 15 15
21 -7 11 -7 11 -20 1z"/>
<path d="M160 822 c0 -5 14 -7 30 -4 17 2 30 6 30 8 0 2 -13 4 -30 4 -16 0
-30 -4 -30 -8z"/>
<path d="M295 816 c20 -14 35 -12 35 5 0 5 -12 9 -27 9 -26 0 -26 -1 -8 -14z"/>
<path d="M138 799 c-2 -7 -2 -23 0 -36 3 -17 10 -22 32 -20 15 1 26 6 23 10
-3 5 -14 6 -25 4 -14 -4 -18 -1 -14 11 7 21 -9 51 -16 31z"/>
<path d="M198 803 c7 -3 16 -2 19 1 4 3 -2 6 -13 5 -11 0 -14 -3 -6 -6z"/>
<path d="M210 789 c-45 -6 -40 -11 13 -11 15 -1 27 -5 27 -9 0 -5 -4 -9 -10
-9 -5 0 -10 -5 -10 -10 0 -6 13 -9 29 -8 16 1 27 6 25 10 -3 5 -10 5 -16 2 -7
-5 -9 0 -6 14 8 27 3 29 -52 21z"/>
<path d="M14 718 c-3 -4 27 -7 65 -7 39 1 71 4 71 8 0 10 -130 9 -136 -1z"/>
<path d="M160 713 c0 -13 3 -14 11 -6 6 6 18 9 25 6 8 -3 14 -1 14 4 0 5 -11
10 -25 11 -18 1 -25 -3 -25 -15z"/>
<path d="M230 720 c0 -4 14 -7 31 -8 17 0 28 2 25 6 -9 9 -56 11 -56 2z"/>
<path d="M176 682 c-16 -4 -16 -5 1 -18 21 -16 37 -18 28 -4 -3 6 3 10 15 10
12 0 19 -3 17 -7 -3 -5 2 -14 10 -22 14 -12 15 -12 11 0 -3 8 2 19 11 25 12 9
6 12 -30 15 -25 2 -54 2 -63 1z"/>
<path d="M10 665 c7 -9 16 -12 19 -7 3 5 15 12 26 15 11 3 3 5 -19 6 -34 1
-37 -1 -26 -14z"/>
<path d="M80 671 c0 -5 -8 -12 -17 -14 -17 -4 -17 -5 0 -6 10 0 15 -6 12 -11
-4 -6 -11 -7 -17 -4 -7 4 -8 2 -4 -5 6 -9 11 -9 22 0 7 6 11 15 8 20 -2 5 8
11 23 15 48 10 49 12 11 13 -21 1 -38 -3 -38 -8z"/>
<path d="M141 653 c1 -5 1 -32 0 -60 -1 -46 -4 -53 -21 -53 -11 0 -20 5 -20
10 0 6 7 10 15 10 8 0 15 5 15 10 0 6 -28 9 -67 9 -38 -1 -57 -4 -43 -6 14 -3
28 -10 32 -17 6 -8 8 -8 8 2 0 6 9 12 20 12 13 0 18 -5 14 -15 -4 -10 -21 -15
-53 -16 -29 0 -39 -3 -28 -8 10 -3 46 -6 80 -4 34 1 75 2 90 2 16 1 26 5 23
10 -3 4 -17 7 -31 6 -17 -2 -25 2 -25 12 0 12 10 14 45 10 25 -2 45 0 45 5 0
4 -7 8 -16 8 -11 0 -15 6 -12 18 3 10 -1 23 -7 29 -10 9 -14 7 -18 -8 -3 -10
-13 -19 -24 -18 -16 0 -16 1 2 9 17 7 17 9 3 9 -10 1 -18 6 -18 12 0 5 4 8 8
5 5 -3 9 1 9 9 0 8 -6 15 -14 15 -7 0 -12 -3 -12 -7z m52 -70 c-7 -2 -21 -2
-30 0 -10 3 -4 5 12 5 17 0 24 -2 18 -5z"/>
<path d="M105 628 c6 -14 2 -17 -24 -13 -19 2 -31 -1 -31 -8 0 -7 -4 -6 -10 3
-5 8 -12 11 -15 8 -14 -14 8 -28 45 -28 40 0 61 23 40 44 -8 8 -9 6 -5 -6z"/>
<path d="M95 510 c-4 -6 -21 -9 -38 -6 -18 3 -39 1 -47 -4 -12 -8 -9 -10 13
-10 17 0 27 -5 27 -15 0 -8 3 -15 8 -16 4 0 15 -2 25 -4 9 -2 17 3 17 10 0 8
-7 11 -20 8 -11 -3 -20 0 -20 6 0 6 17 12 38 12 20 1 29 3 19 6 -9 2 -15 9
-12 14 4 5 4 9 1 9 -3 0 -8 -5 -11 -10z"/>
<path d="M140 500 c0 -6 7 -10 15 -10 8 0 15 2 15 4 0 2 -7 6 -15 10 -8 3 -15
1 -15 -4z"/>
<path d="M185 500 c-3 -5 1 -10 9 -10 9 0 16 5 16 10 0 6 -4 10 -9 10 -6 0
-13 -4 -16 -10z"/>
<path d="M15 470 c-3 -5 1 -10 10 -10 9 0 13 5 10 10 -3 6 -8 10 -10 10 -2 0
-7 -4 -10 -10z"/>
<path d="M146 473 c-11 -11 -7 -20 9 -20 8 0 15 4 15 8 0 11 -16 20 -24 12z"/>
<path d="M190 442 c0 -7 -32 -10 -95 -9 -52 1 -95 -1 -95 -5 0 -10 15 -11 110
-8 71 1 102 11 87 27 -4 3 -7 1 -7 -5z"/>
<path d="M3 394 c9 -9 157 -10 170 -2 7 4 -30 8 -82 8 -52 0 -92 -3 -88 -6z"/>
<path d="M5 361 c-3 -5 -2 -12 3 -15 5 -3 9 1 9 9 0 17 -3 19 -12 6z"/>
<path d="M57 363 c-4 -3 -7 -14 -7 -24 0 -12 -6 -17 -20 -14 -11 2 -22 0 -24
-4 -3 -4 13 -8 35 -8 21 0 39 3 39 8 0 5 -6 9 -12 10 -7 0 -2 4 10 10 13 5 28
7 33 3 5 -3 9 1 9 9 0 7 -7 14 -15 14 -8 0 -15 -4 -15 -9 0 -4 -8 -8 -17 -8
-15 0 -16 2 -3 10 8 5 10 10 4 10 -6 0 -14 -3 -17 -7z"/>
<path d="M141 357 c-1 -21 21 -18 27 4 3 12 2 12 -6 0 -8 -11 -10 -11 -15 0
-4 10 -6 8 -6 -4z"/>
<path d="M95 332 c-3 -3 -5 -10 -5 -15 0 -6 3 -7 7 -4 3 4 12 2 20 -4 10 -9
13 -8 13 0 0 7 4 10 9 6 5 -3 12 -1 15 4 6 9 -50 21 -59 13z"/>
<path d="M6 291 c-2 -3 2 -12 10 -19 8 -7 14 -8 14 -3 0 5 8 11 18 13 12 3 8
6 -11 10 -15 3 -29 3 -31 -1z"/>
<path d="M92 283 c20 -3 25 -8 21 -21 -5 -13 -3 -14 7 -5 18 16 3 33 -28 32
l-27 -2 27 -4z"/>
<path d="M45 260 c3 -5 8 -10 11 -10 2 0 4 5 4 10 0 6 -5 10 -11 10 -5 0 -7
-4 -4 -10z"/>
<path d="M70 245 c-20 -22 -25 -23 -33 -10 -11 20 -27 10 -27 -16 0 -16 5 -19
19 -14 49 15 61 14 61 -7 0 -15 -5 -19 -20 -15 -11 3 -20 1 -20 -4 0 -5 13 -9
29 -9 25 0 28 3 23 22 -3 14 -2 19 6 14 7 -4 12 -1 12 9 0 9 -3 14 -7 12 -5
-3 -13 1 -20 8 -10 11 -10 14 0 18 7 2 9 7 6 11 -3 3 -16 -5 -29 -19z"/>
<path d="M10 180 c-12 -8 -10 -10 8 -10 13 0 20 4 17 10 -7 12 -6 12 -25 0z"/>
<path d="M4 149 c-8 -14 14 -19 25 -6 8 10 7 14 -5 14 -8 0 -17 -4 -20 -8z"/>
<path d="M53 143 c0 -7 8 -13 17 -13 9 0 17 6 17 14 0 8 -8 14 -17 13 -9 0
-17 -7 -17 -14z"/>
<path d="M20 107 c0 -5 -5 -5 -12 -1 -6 4 -8 3 -5 -3 6 -10 77 -5 77 6 0 3
-13 6 -30 6 -16 0 -30 -4 -30 -8z"/>
<path d="M5 70 c-8 -13 9 -20 24 -11 10 6 9 10 -3 14 -8 3 -18 2 -21 -3z"/>
<path d="M50 70 c0 -5 5 -10 11 -10 5 0 7 5 4 10 -3 6 -8 10 -11 10 -2 0 -4
-4 -4 -10z"/>
<path d="M25 40 l-30 -8 33 -1 c17 0 32 4 32 9 0 6 -1 9 -2 9 -2 -1 -16 -5
-33 -9z"/>
</g>
</svg>
